<svg width="106" height="151" viewBox="0 0 106 151" fill="none" xmlns="http://www.w3.org/2000/svg">
<path d="M53.5292 108.007C64.9989 108.298 74.2079 117.687 74.2079 129.227L74.2011 129.774C73.9104 141.244 64.521 150.453 52.9814 150.453L52.4335 150.446C41.1457 150.16 32.0477 141.062 31.7616 129.774L31.7548 129.227C31.7548 117.504 41.2583 108 52.9814 108L53.5292 108.007ZM52.9814 118C46.7812 118 41.7548 123.026 41.7548 129.227C41.7549 135.427 46.7812 140.453 52.9814 140.453C59.1813 140.453 64.2078 135.427 64.2079 129.227C64.2079 123.027 59.1814 118 52.9814 118ZM102.467 81.5146C104.375 86.9794 106 92.8543 106 98.9766C106 110.759 102.079 122.136 94.9618 131.364V105.368C94.9653 102.477 93.9387 99.9996 91.8818 97.9365C89.9777 96.0269 87.7179 95.0024 85.1034 94.8604C89.9896 92.3132 95.7121 88.1908 102.467 81.5146ZM45.9306 0C84.6243 25.806 114.795 73.629 79.2196 93.9375V84.3154C79.2266 77.0419 76.6684 70.8369 71.5468 65.7002C66.4252 60.5635 60.2369 57.9966 52.9814 58C45.7256 58.0035 39.538 60.5704 34.4198 65.7002C29.3019 70.8299 26.7432 77.035 26.7431 84.3154V94.8418H21.495C18.6126 94.8453 16.1428 95.8772 14.0859 97.9365C12.0288 99.9961 11 102.474 10.9999 105.368V131.315C8.00975 127.429 5.55602 123.125 3.72941 118.515C-0.183939 108.637 -1.04107 97.8116 1.26945 87.4414C3.58002 77.0711 8.95139 67.6341 16.6874 60.3545C26.1713 51.4254 49.4641 35.3488 45.9306 0ZM52.9814 68.5264C57.3542 68.5265 61.0717 70.0618 64.1327 73.1318C67.1935 76.2019 68.7235 79.9298 68.7235 84.3154V94.8418H37.2382V84.3154C37.2383 79.9296 38.769 76.2019 41.83 73.1318C44.8911 70.0617 48.6083 68.5264 52.9814 68.5264Z" fill="#E49244"/>
</svg>
